<?xml version="1.0" encoding="utf-8"?>
<!-- Generator: Adobe Illustrator 19.2.1, SVG Export Plug-In . SVG Version: 6.00 Build 0)  -->
<svg version="1.1" id="Layer_1" xmlns="http://www.w3.org/2000/svg" xmlns:xlink="http://www.w3.org/1999/xlink" x="0px" y="0px"
	 viewBox="0 0 874.1 242.9" style="enable-background:new 0 0 874.1 242.9;" xml:space="preserve">
<style type="text/css">
	.st0{fill:#173A64;}
	.st1{fill-rule:evenodd;clip-rule:evenodd;fill:#173A64;}
	.st2{fill:#173A64;stroke:#173A64;stroke-width:2;stroke-miterlimit:10;}
	.st3{fill:#7E267C;}
	.st4{fill:#006548;}
	.st5{fill:#ED1B2F;}
	.st6{fill:#F37021;}
	.st7{fill:#3CA6DD;}
	.st8{fill:#808285;}
</style>
<g>
	<path class="st0" d="M11.7,5.4H41c3.1,0,5.9,0.5,8.5,1.4c2.6,1,4.8,2.3,6.6,4c1.8,1.7,3.2,3.8,4.3,6.1c1,2.4,1.5,5,1.5,7.9
		c0,2.7-0.4,5.3-1.2,7.7c-0.8,2.4-2,4.7-3.4,6.7c-1.5,2-3.2,3.8-5.3,5.3c-2.1,1.5-4.3,2.7-6.8,3.5l11.5,23.9H38.4l-10-22.1h-7
		l-4,22.1H0L11.7,5.4z M23.8,36h9.6c3.2,0,5.8-0.9,7.8-2.7c1.9-1.8,2.9-4.1,2.9-6.9c0-2.2-0.7-3.9-2.1-5.2c-1.4-1.3-3.4-1.9-6-1.9
		h-9.3L23.8,36z"/>
	<path class="st0" d="M60,58.6c0-2.7,0.6-5.2,1.7-7.4c1.1-2.2,2.7-4.1,4.8-5.6c2.1-1.6,4.6-2.8,7.5-3.6c2.9-0.9,6.3-1.3,10-1.3
		c1.5,0,3,0.1,4.5,0.2c1.6,0.1,3.1,0.3,4.6,0.6l0.1-0.6c0.1-0.5,0.2-1,0.2-1.3c0-1.5-0.7-2.7-2.1-3.6c-1.4-1-3.2-1.4-5.5-1.4
		c-2.2,0-4.6,0.2-7.1,0.7c-2.5,0.5-5.2,1.2-8,2.1l-2.9-12c4-1.2,7.7-2.1,11.1-2.7c3.5-0.6,7-0.9,10.5-0.9c3,0,5.7,0.4,8.2,1.2
		c2.5,0.8,4.6,1.9,6.4,3.3c1.8,1.4,3.2,3.2,4.1,5.2c1,2,1.4,4.3,1.4,6.7c0,0.7,0,1.4-0.1,2.1c-0.1,0.7-0.2,1.3-0.3,1.9l-2.7,15
		c-0.1,0.3-0.1,0.5-0.1,0.6c0,0.2,0,0.3,0,0.4c0,0.5,0.2,1,0.5,1.3c0.4,0.3,0.9,0.5,1.5,0.5c0.7,0,1.3,0,1.6-0.1v12.4
		c-1.3,0.3-2.6,0.5-3.9,0.6c-1.3,0.1-2.6,0.2-3.9,0.2c-2.6,0-4.8-0.5-6.6-1.4c-1.9-1-3.2-2.3-4.2-4c-2.1,1.9-4.5,3.2-7.1,4.1
		c-2.6,0.9-5.3,1.3-8,1.3c-2.3,0-4.5-0.4-6.4-1.1c-2-0.8-3.7-1.8-5.2-3.1c-1.5-1.3-2.6-2.8-3.4-4.6C60.4,62.5,60,60.6,60,58.6z
		 M76.3,56.3c0,1.5,0.5,2.7,1.5,3.6c1,0.9,2.5,1.3,4.3,1.3c2.2,0,4.2-0.7,5.9-2.2c1.7-1.5,2.7-3.3,3.1-5.6l0.4-2.2
		c-1.1-0.2-2.2-0.4-3.4-0.5c-1.1-0.1-2.2-0.2-3.4-0.2c-2.5,0-4.6,0.5-6.1,1.6C77.1,53.2,76.3,54.6,76.3,56.3z"/>
	<path class="st0" d="M120.7,22.9h17.4l-8.6,49.1h-17.4L120.7,22.9z M121.6,11.4c0-1.6,0.3-3.1,0.9-4.5c0.6-1.4,1.4-2.6,2.4-3.6
		c1-1,2.2-1.8,3.6-2.4c1.4-0.6,2.9-0.9,4.5-0.9c2.5,0,4.5,0.8,6.1,2.4c1.6,1.6,2.3,3.6,2.3,6.1c0,1.6-0.3,3.1-0.9,4.5
		c-0.6,1.4-1.4,2.6-2.4,3.6c-1,1-2.2,1.8-3.6,2.4c-1.4,0.6-2.9,0.9-4.5,0.9c-2.5,0-4.5-0.8-6.1-2.4C122.4,16,121.6,13.9,121.6,11.4z
		"/>
	<path class="st0" d="M156.3,55.1c-0.1,0.3-0.1,0.6-0.1,0.9c0,0.3,0,0.5,0,0.7c0,0.9,0.3,1.5,0.8,1.9c0.5,0.4,1.3,0.6,2.2,0.6
		c1.3,0,2.5-0.1,3.7-0.3l0.7,13.2c-1.8,0.3-3.6,0.6-5.4,0.7c-1.8,0.2-3.4,0.2-5,0.2c-4.6,0-8.2-1.2-10.8-3.6c-2.6-2.4-4-5.6-4-9.7
		c0-1.3,0.1-2.5,0.3-3.9l9.6-53.8h17.4L156.3,55.1z"/>
	<path class="st0" d="M205.6,5.4h26.2c4.6,0,8.8,0.7,12.6,2c3.8,1.3,7,3.2,9.7,5.6c2.7,2.4,4.7,5.3,6.2,8.7
		c1.5,3.4,2.2,7.2,2.2,11.3c0,5.8-1,11.1-2.9,15.9c-1.9,4.8-4.6,8.9-8.1,12.3c-3.5,3.4-7.6,6-12.4,7.9c-4.8,1.9-10.2,2.8-16.1,2.8
		h-29.1L205.6,5.4z M244,34.4c0-4.6-1.5-8.2-4.4-11c-2.9-2.8-6.8-4.2-11.8-4.2h-6.4l-6.8,38.8h8.1c3.1,0,6-0.6,8.6-1.7
		c2.6-1.2,4.9-2.8,6.7-4.9s3.4-4.6,4.4-7.5C243.4,41.1,244,37.9,244,34.4z"/>
	<path class="st0" d="M282.4,52.1c0,0.7,0.1,1.3,0.3,2c0.5,1.9,1.7,3.4,3.5,4.5c1.8,1.2,4,1.7,6.6,1.7c4,0,8.2-1.3,12.7-4l5.3,11.3
		c-7.1,3.6-14,5.5-20.9,5.5c-3.7,0-7.1-0.5-10.1-1.5c-3-1-5.6-2.4-7.7-4.3c-2.1-1.8-3.8-4-4.9-6.6c-1.2-2.5-1.7-5.4-1.7-8.6
		c0-4.5,0.7-8.6,2.2-12.3c1.5-3.7,3.6-7,6.2-9.7c2.6-2.7,5.8-4.8,9.5-6.3c3.7-1.5,7.7-2.2,12-2.2c3,0,5.9,0.5,8.5,1.5
		c2.6,1,4.9,2.4,6.8,4.2s3.4,3.9,4.5,6.3c1.1,2.4,1.6,5.1,1.6,8c0,3.4-0.5,6.9-1.5,10.3H282.4z M293.6,34.5c-2.1,0-4.1,0.7-5.9,2
		c-1.8,1.4-3.1,3.2-3.8,5.4h16.6v-1.8c-0.3-1.7-1-3-2.2-4.1C297.1,35,295.5,34.5,293.6,34.5z"/>
	<path class="st0" d="M337.5,55.1c-0.1,0.3-0.1,0.6-0.1,0.9c0,0.3,0,0.5,0,0.7c0,0.9,0.3,1.5,0.8,1.9c0.5,0.4,1.3,0.6,2.2,0.6
		c1.3,0,2.5-0.1,3.7-0.3l0.7,13.2c-1.8,0.3-3.6,0.6-5.4,0.7c-1.8,0.2-3.4,0.2-5,0.2c-4.6,0-8.2-1.2-10.8-3.6c-2.6-2.4-4-5.6-4-9.7
		c0-1.3,0.1-2.5,0.3-3.9l9.6-53.8h17.4L337.5,55.1z"/>
	<path class="st0" d="M355.5,22.9h17.4l-8.6,49.1h-17.4L355.5,22.9z M356.3,11.4c0-1.6,0.3-3.1,0.9-4.5c0.6-1.4,1.4-2.6,2.4-3.6
		c1-1,2.2-1.8,3.6-2.4c1.4-0.6,2.9-0.9,4.5-0.9c2.5,0,4.5,0.8,6.1,2.4c1.6,1.6,2.3,3.6,2.3,6.1c0,1.6-0.3,3.1-0.9,4.5
		c-0.6,1.4-1.4,2.6-2.4,3.6c-1,1-2.2,1.8-3.6,2.4c-1.4,0.6-2.9,0.9-4.5,0.9c-2.5,0-4.5-0.8-6.1-2.4C357.1,16,356.3,13.9,356.3,11.4z
		"/>
	<path class="st0" d="M405.5,71.9h-16l-11.1-49.1h17l5,28.6l15-28.6h18.5L405.5,71.9z"/>
	<path class="st0" d="M444.6,52.1c0,0.7,0.1,1.3,0.3,2c0.5,1.9,1.7,3.4,3.5,4.5c1.8,1.2,4,1.7,6.6,1.7c4,0,8.2-1.3,12.7-4l5.3,11.3
		c-7.1,3.6-14,5.5-20.9,5.5c-3.7,0-7.1-0.5-10.1-1.5c-3-1-5.6-2.4-7.7-4.3c-2.1-1.8-3.8-4-4.9-6.6c-1.2-2.5-1.7-5.4-1.7-8.6
		c0-4.5,0.7-8.6,2.2-12.3c1.5-3.7,3.6-7,6.2-9.7c2.6-2.7,5.8-4.8,9.5-6.3c3.7-1.5,7.7-2.2,12-2.2c3,0,5.9,0.5,8.5,1.5
		c2.6,1,4.9,2.4,6.8,4.2s3.4,3.9,4.5,6.3c1.1,2.4,1.6,5.1,1.6,8c0,3.4-0.5,6.9-1.5,10.3H444.6z M455.8,34.5c-2.1,0-4.1,0.7-5.9,2
		c-1.8,1.4-3.1,3.2-3.8,5.4h16.6v-1.8c-0.3-1.7-1-3-2.2-4.1C459.3,35,457.8,34.5,455.8,34.5z"/>
	<path class="st0" d="M488,22.9h13.1l1.2,5.9c1.9-2.1,4.1-3.8,6.5-5c2.4-1.2,5-1.8,7.8-1.8c1,0,2.1,0.1,3.3,0.3s2.3,0.5,3.5,0.8
		L519,36.9c-0.9-0.3-1.9-0.6-3.1-0.7c-1.1-0.1-2.1-0.2-2.9-0.2c-3,0-5.5,0.9-7.6,2.6c-2.1,1.8-3.4,4.1-4,7l-4.6,26.4h-17.4L488,22.9
		z"/>
	<path class="st0" d="M549.6,77.9c-5.9,10.6-13.4,15.9-22.5,15.9c-1.3,0-2.7-0.1-4.2-0.2c-1.5-0.2-3-0.5-4.5-0.9l3.1-13.5
		c1.9,0.5,3.7,0.8,5.4,0.8c1.7,0,3.3-0.4,4.6-1.3c1.4-0.9,2.6-2.3,3.7-4.3l1.7-3.1l-11.2-48.3h17l5,28.6l15-28.6h18.5L549.6,77.9z"
		/>
	<path class="st0" d="M659.7,67.9c-8.3,3.5-16.8,5.3-25.5,5.3c-5,0-9.4-0.7-13.4-2s-7.3-3.2-10.1-5.6c-2.8-2.4-4.9-5.4-6.4-8.7
		c-1.5-3.4-2.3-7.1-2.3-11.3c0-5.9,1-11.4,3.1-16.5c2-5.1,4.9-9.4,8.5-13.1c3.6-3.7,7.9-6.5,12.8-8.6s10.3-3.1,16.2-3.1
		c8.7,0,17.1,2.2,25.4,6.6l-7.6,12.4c-2.8-1.5-5.6-2.8-8.6-3.7c-3-1-5.9-1.4-8.7-1.4c-3.4,0-6.6,0.6-9.4,1.9c-2.8,1.3-5.3,3-7.3,5.3
		c-2,2.2-3.6,4.9-4.8,8.1c-1.1,3.1-1.7,6.6-1.7,10.3c0,2.4,0.4,4.6,1.2,6.5c0.8,2,2,3.7,3.6,5.1c1.6,1.4,3.4,2.5,5.5,3.2
		c2.1,0.8,4.5,1.1,7,1.1c1.4,0,2.7-0.1,4-0.3c1.3-0.2,2.5-0.5,3.6-0.8l2.2-12.1h-12.4l2.3-13.2h29.1L659.7,67.9z"/>
	<path class="st0" d="M673.9,22.9H687l1.2,5.9c1.9-2.1,4.1-3.8,6.5-5c2.4-1.2,5-1.8,7.8-1.8c1,0,2.1,0.1,3.3,0.3s2.3,0.5,3.5,0.8
		l-4.4,13.7c-0.9-0.3-1.9-0.6-3.1-0.7c-1.1-0.1-2.1-0.2-2.9-0.2c-3,0-5.5,0.9-7.6,2.6c-2.1,1.8-3.4,4.1-4,7l-4.6,26.4h-17.4
		L673.9,22.9z"/>
	<path class="st0" d="M706.7,52.2c0-4.4,0.8-8.4,2.3-12.1c1.5-3.7,3.7-7,6.4-9.7c2.8-2.7,6.1-4.9,9.9-6.4c3.8-1.5,8-2.3,12.5-2.3
		c3.6,0,6.9,0.5,9.9,1.5c2.9,1,5.5,2.4,7.5,4.3c2.1,1.9,3.7,4,4.9,6.6c1.2,2.5,1.7,5.4,1.7,8.6c0,4.4-0.8,8.4-2.3,12.1
		c-1.5,3.7-3.7,7-6.4,9.7c-2.8,2.7-6.1,4.9-9.9,6.4c-3.8,1.5-8,2.3-12.5,2.3c-3.6,0-6.9-0.5-9.9-1.5c-2.9-1-5.5-2.4-7.5-4.3
		c-2.1-1.8-3.7-4-4.9-6.6C707.2,58.3,706.7,55.4,706.7,52.2z M724.5,50.8c0,2.7,0.7,4.9,2.1,6.4c1.4,1.6,3.3,2.4,5.8,2.4
		c1.7,0,3.2-0.4,4.6-1.2c1.4-0.8,2.6-1.9,3.7-3.3c1-1.4,1.8-3.1,2.4-5s0.9-3.9,0.9-6.1c0-2.8-0.7-5-2.1-6.5
		c-1.4-1.6-3.4-2.4-5.9-2.4c-1.7,0-3.2,0.4-4.6,1.2c-1.4,0.8-2.6,1.9-3.6,3.3c-1,1.4-1.8,3.1-2.4,5
		C724.8,46.6,724.5,48.7,724.5,50.8z"/>
	<path class="st0" d="M811.2,71.9h-13.1l-1.3-5.3c-2.1,2-4.5,3.6-7.2,4.8c-2.7,1.1-5.5,1.7-8.6,1.7c-2.5,0-4.8-0.4-6.8-1.2
		c-2-0.8-3.8-1.9-5.3-3.3c-1.5-1.4-2.6-3.1-3.5-5.1c-0.8-1.9-1.2-4.1-1.2-6.5c0-1.8,0.2-3.6,0.5-5.5l5.1-28.7h17.4l-4.9,27.6
		c-0.1,0.3-0.1,0.7-0.1,1.2c0,0.5,0,0.9,0,1.2c0,1.9,0.5,3.4,1.6,4.5c1.1,1.1,2.6,1.6,4.5,1.6c2.4,0,4.5-0.8,6.1-2.4
		c1.7-1.6,2.7-3.8,3.2-6.5l4.9-27.2h17.4L811.2,71.9z"/>
	<path class="st0" d="M826.3,22.9h13.1l1.5,4.5c4.2-3.8,9-5.6,14.5-5.6c5.9,0,10.5,1.8,13.8,5.4c3.3,3.6,5,8.5,5,14.8
		c0,4.6-0.6,8.8-1.9,12.6c-1.3,3.8-3.1,7.1-5.4,9.9c-2.3,2.8-5,4.9-8.2,6.5c-3.2,1.6-6.7,2.3-10.5,2.3c-2.5,0-4.8-0.4-7-1.3
		c-2.1-0.9-3.9-2.1-5.4-3.8l-4.4,24.5H814L826.3,22.9z M856.4,44c0-2.4-0.7-4.3-2.1-5.8c-1.4-1.5-3.2-2.2-5.4-2.2
		c-2.3,0-4.3,0.8-6,2.3c-1.7,1.5-2.8,3.7-3.4,6.4l-0.8,4.6c-0.1,0.5-0.1,0.9-0.1,1.3c0,0.4,0,0.8,0,1.2c0,2.1,0.6,3.8,1.9,5.2
		c1.3,1.3,2.9,2,5,2c3.3,0,6-1.4,8-4.1C855.4,52.1,856.4,48.5,856.4,44z"/>
</g>
<g>
	<path class="st0" d="M117.3,199.6c0-16.4,12.9-29.6,28.8-29.6s28.9,13.3,28.9,29.6s-12.9,29.6-28.9,29.6S117.3,216,117.3,199.6
		 M132.2,185.2l14.6,6.9h-22.7v4.7H147l-11.1,5.5h-11.7v4.6h11.7l13.9,6.9h10.4l-14.6-6.9h22.8v-4.6h-22.7l11.1-5.5h11.6v-4.7h-11.7
		l-13.9-6.9H132.2z"/>
	<path class="st0" d="M220.8,183.4h-6.7v15.6c0,2.5,0,3.4,0.1,6.3c-0.9-1.5-1.9-2.8-3.1-4.6l-11.7-17.4h-6.9v31.8h6.6v-15.3
		c0-2.9-0.3-6.9-0.3-6.9s2,3.3,3.2,5c0,0,11.8,17.2,11.8,17.2h7V183.4"/>
	<path class="st1" d="M236.8,204.5c0,3.4-2.1,5.7-4.5,5.7c-2,0-3.2-1.4-3.2-3.9c0-3.8,2.1-6.1,5.2-6.1c0.7,0,1.5,0,2.5,0.3V204.5
		 M237.5,212.6c0.1,1.5,0.2,2.7,0.2,2.7h5.1c0,0-0.4-3.7-0.4-6.6v-13c-2.7-0.8-4.3-1-6.9-1c-7.9,0-12.6,4.2-12.6,11.5
		c0,6,3,9.5,7.9,9.5C233.5,215.7,236,214.6,237.5,212.6"/>
	<path class="st0" d="M253.7,199.5h5.9v-4.3h-5.9v-5.1h-5.9v5.1h-3.2v4.3h3.2v9.7c0,5,2.9,6.7,7,6.7c2.1,0,3.8-0.5,5.2-1.5v-4.5
		c-1.5,0.9-2.6,1.3-3.6,1.3c-1.7,0-2.7-0.9-2.7-3.7V199.5"/>
	<path class="st1" d="M263.1,215.3h6v-20.1h-6V215.3z M269.6,189.2c0-2-1.6-3.6-3.5-3.6c-2,0-3.5,1.6-3.5,3.5c0,1.9,1.6,3.5,3.5,3.5
		C268.1,192.5,269.6,191,269.6,189.2"/>
	<path class="st1" d="M286.3,205.2c0,3.4-1.6,5.3-4.3,5.3s-4.1-2-4.1-5.3c0-3.2,1.5-5.2,4.1-5.2C284.6,200,286.3,201.9,286.3,205.2
		 M292.3,205.2c0-6.8-4.1-10.6-10.3-10.6c-6.3,0-10.3,3.9-10.3,10.6c0,6.9,4.2,10.7,10.3,10.7C288.1,215.9,292.3,212.1,292.3,205.2"
		/>
	<path class="st0" d="M300.4,206.6c0-6,3.3-6.6,4-6.6c0.8,0,2.6,0.2,2.6,3.4v11.8h6.2v-12.9c0-4.7-2.9-7.7-6.7-7.7
		c-2.3,0-4.6,0.9-6.5,2.8c-0.2-1.1-0.3-1.4-0.6-2.2h-5.9c0.6,1.4,1,4.1,1,6.4v13.6h5.9V206.6"/>
	<path class="st1" d="M329.5,204.5c0,3.4-2.1,5.7-4.5,5.7c-2,0-3.2-1.4-3.2-3.9c0-3.8,2.1-6.1,5.2-6.1c0.7,0,1.5,0,2.5,0.3V204.5
		 M330.2,212.6c0.1,1.5,0.2,2.7,0.2,2.7h5.1c0,0-0.4-3.7-0.4-6.6v-13c-2.7-0.8-4.3-1-6.9-1c-7.9,0-12.6,4.2-12.6,11.5
		c0,6,3,9.5,7.9,9.5C326.2,215.7,328.8,214.6,330.2,212.6"/>
	<rect x="338.9" y="183.4" class="st0" width="6.1" height="31.8"/>
	<path class="st1" d="M373.2,188.7c0.9-0.1,1.7-0.1,2.3-0.1c4.4,0,6.3,1.5,6.3,4.2c0,2.5-2.4,4-6.1,4c-0.4,0-2.5-0.2-2.5-0.2V188.7
		 M379.7,200.7c5.9-0.1,9.6-3.3,9.6-8.2c0-6-4.1-9.2-13.7-9.2c-1.2,0-6.9,0.1-9.5,0.3v31.6h7.1v-12.8l9.6,12.8h8.5L379.7,200.7z"/>
	<path class="st1" d="M404.2,204.5c0,3.4-2.1,5.7-4.5,5.7c-2,0-3.2-1.4-3.2-3.9c0-3.8,2.1-6.1,5.2-6.1c0.7,0,1.5,0,2.5,0.3V204.5
		 M404.9,212.6c0.1,1.5,0.2,2.7,0.2,2.7h5.1c0,0-0.4-3.7-0.4-6.6v-13c-2.7-0.8-4.3-1-6.9-1c-7.9,0-12.6,4.2-12.6,11.5
		c0,6,3,9.5,7.9,9.5C400.9,215.7,403.5,214.6,404.9,212.6"/>
	<path class="st1" d="M414,215.3h6v-20.1h-6V215.3z M420.5,189.2c0-2-1.6-3.6-3.5-3.6c-2,0-3.5,1.6-3.5,3.5c0,1.9,1.6,3.5,3.5,3.5
		C419,192.5,420.5,191,420.5,189.2"/>
	<rect x="423.8" y="183.4" class="st0" width="6.1" height="31.8"/>
</g>
<line class="st2" x1="124.1" y1="126.6" x2="746.8" y2="126.6"/>
<g>
	<polygon class="st3" points="515.8,155 567.3,178.7 594.6,178.7 545.9,155 	"/>
	<polygon class="st4" points="536.4,219.2 585.1,242.9 615,242.9 563.4,219.2 	"/>
	<polygon class="st5" points="536.2,206.6 567.4,191.4 594.6,191.4 563.4,206.6 	"/>
	<rect x="503.3" y="178.7" class="st6" width="124.2" height="12.6"/>
	<rect x="503.2" y="206.6" class="st7" width="124.2" height="12.6"/>
	<g>
		<path class="st8" d="M731.1,232.1h11.6l0.6-3.6h-6.8l2.4-13.7h-4.7L731.1,232.1z M723,232.1h4.7l3-17.3h-4.7L723,232.1z
			 M714.5,219.7l1,5.5h-4L714.5,219.7z M702.9,232.1h4.8l1.9-3.5h6.5l0.7,3.5h4.5l-3.9-17.3H713L702.9,232.1z M694.7,218.4h2.4
			c1.3,0,2.1,0.7,2.1,1.9c0,1.5-1.1,2.5-2.8,2.5H694L694.7,218.4z M687.8,232.1h4.5l1-5.8h1.8l2.6,5.8h4.7l-3-6.2
			c2.6-0.9,4.4-3.2,4.4-6c0-3-2.2-5.1-5.4-5.1h-7.6L687.8,232.1z M663.1,232.1h4.4l1.9-10.7l5.5,10.7h4.4l3-17.3H678l-1.9,10.7
			l-5.5-10.7h-4.5L663.1,232.1z M649.1,224.9c0-3.8,2.3-6.7,5.2-6.7c2.2,0,3.7,1.4,3.7,3.9c0,3.8-2.3,6.7-5.2,6.7
			C650.6,228.8,649.1,227.3,649.1,224.9 M644.3,225.4c0,4.3,3.2,7.1,8,7.1c6.1,0,10.5-4.5,10.5-10.9c0-4.3-3.2-7.1-8.1-7.1
			C648.7,214.5,644.3,219,644.3,225.4"/>
		<path class="st8" d="M701.8,195.6c0,5.4,7.6,4.4,7.6,6.9c0,1-1,1.8-2.6,1.8c-1.4,0-3.4-0.5-5.5-1.5l-1.5,3.5
			c2.3,1.1,5,1.7,7.2,1.7c4.1,0,7-2.3,7-5.7c0-5.6-7.6-4.5-7.6-6.9c0-1,1-1.7,2.5-1.7c1.3,0,3.1,0.4,5.1,1.3l1.5-3.5
			c-2.2-1-4.7-1.4-6.7-1.4C704.7,190,701.8,192.4,701.8,195.6 M680.9,207.6h4.4l1.9-10.7l5.5,10.7h4.4l3-17.3h-4.3l-1.9,10.7
			l-5.5-10.7h-4.5L680.9,207.6z M680.6,190.3h-4.7l-1.9,10.6c-0.4,2.1-2,3.4-4.1,3.4c-1.8,0-3.1-1.1-3.1-2.9c0-0.3,0-0.6,0.1-0.9
			l1.8-10.2H664l-1.8,10.2c-0.1,0.5-0.1,1-0.1,1.4c0,3.6,3.1,6,7.4,6c4.8,0,8.4-2.5,9.1-6.7L680.6,190.3z M651.6,193.9h2.4
			c1.3,0,2.1,0.7,2.1,1.9c0,1.5-1.1,2.5-2.8,2.5h-2.5L651.6,193.9z M644.6,207.6h4.5l1-5.8h1.8l2.6,5.8h4.7l-3-6.2
			c2.6-0.9,4.4-3.2,4.4-6c0-3-2.2-5.1-5.4-5.1h-7.6L644.6,207.6z"/>
		<path class="st8" d="M726.7,183.1h4.4l1.9-10.7l5.5,10.7h4.4l3-17.3h-4.3l-1.9,10.7l-5.5-10.7h-4.5L726.7,183.1z M718.6,183.1h4.7
			l3-17.3h-4.7L718.6,183.1z M710,170.7l1,5.5h-4L710,170.7z M698.4,183.1h4.8l1.9-3.5h6.5l0.7,3.5h4.5l-3.9-17.3h-4.4L698.4,183.1z
			 M690.7,183.1h4.7l2.4-13.7h4.9l0.6-3.6h-14.5l-0.6,3.6h4.9L690.7,183.1z M678.9,183.1h4.7l3-17.3h-4.7L678.9,183.1z M668.6,169.4
			h2.4c1.3,0,2.1,0.7,2.1,1.9c0,1.5-1.1,2.5-2.8,2.5h-2.5L668.6,169.4z M661.6,183.1h4.5l1-5.8h1.8l2.6,5.8h4.7l-3-6.2
			c2.6-0.9,4.4-3.2,4.4-6c0-3-2.2-5.1-5.4-5.1h-7.6L661.6,183.1z M651.6,169.2h2.7c1.1,0,1.7,0.6,1.7,1.5c0,1.1-1,2-2.2,2H651
			L651.6,169.2z M650.4,175.8h2.9c1.2,0,1.9,0.7,1.9,1.7c0,1.3-1,2.3-2.5,2.3h-3L650.4,175.8z M644.6,183.1h8.7
			c3.7,0,6.5-2.3,6.5-5.3c0-1.8-0.8-3-1.8-3.6c1.6-0.7,2.5-2.3,2.5-4.1c0-2.7-1.9-4.3-5.2-4.3h-7.7L644.6,183.1z"/>
	</g>
</g>
</svg>
